<mxfile host="app.diagrams.net" modified="2024-05-06T11:52:57.463Z" agent="Mozilla/5.0 (Windows NT 10.0; Win64; x64; rv:125.0) Gecko/20100101 Firefox/125.0" etag="MXFj_ws_GfGeH3ZIFqId" version="24.3.1" type="github">
  <diagram name="Page-1" id="2ca16b54-16f6-2749-3443-fa8db7711227">
    <mxGraphModel dx="1593" dy="829" grid="1" gridSize="10" guides="1" tooltips="1" connect="1" arrows="1" fold="1" page="1" pageScale="1" pageWidth="1100" pageHeight="850" background="none" math="0" shadow="0">
      <root>
        <mxCell id="0" />
        <mxCell id="1" parent="0" />
        <mxCell id="9s1055a0UU2QoHIG4uPa-9" value="&lt;div align=&quot;center&quot;&gt;&lt;b style=&quot;background-color: rgb(128, 128, 128);&quot;&gt;Sold to&lt;/b&gt;&lt;br&gt;&lt;/div&gt;&lt;br&gt;Player owned restaurants&lt;br&gt;&lt;br&gt;Market Vendor NPCs" style="rhombus;whiteSpace=wrap;html=1;fillColor=#FFFFFF;" vertex="1" parent="1">
          <mxGeometry x="360" y="280" width="220" height="210" as="geometry" />
        </mxCell>
        <mxCell id="2ed32ef02a7f4228-1" value="Consumable Harvestables:&lt;br&gt;&lt;table style=&quot;width:100%;font-size:1em;&quot; cellpadding=&quot;2&quot; cellspacing=&quot;0&quot;&gt;&lt;tbody&gt;&lt;tr&gt;&lt;td&gt;&lt;br&gt;&lt;/td&gt;&lt;td&gt;&lt;br&gt;&lt;/td&gt;&lt;/tr&gt;&lt;tr&gt;&lt;td&gt;Weed &lt;br&gt;Lettuce&lt;br&gt;Tomato&lt;br&gt;Apple&lt;br&gt;&lt;br&gt;Fish&lt;br&gt;Meat&lt;br&gt;&lt;br&gt;&lt;/td&gt;&lt;td&gt;&lt;br&gt;&lt;/td&gt;&lt;/tr&gt;&lt;tr&gt;&lt;td&gt;Wheat &amp;gt;&amp;gt; Bread&lt;br&gt;&lt;/td&gt;&lt;td&gt;&lt;br&gt;&lt;/td&gt;&lt;/tr&gt;&lt;/tbody&gt;&lt;/table&gt;" style="verticalAlign=top;align=left;overflow=fill;html=1;rounded=0;shadow=0;comic=0;labelBackgroundColor=none;strokeWidth=1;fontFamily=Verdana;fontSize=12;glass=0;" parent="1" vertex="1">
          <mxGeometry x="40" y="290" width="180" height="200" as="geometry" />
        </mxCell>
        <mxCell id="2ed32ef02a7f4228-20" style="edgeStyle=entityRelationEdgeStyle;html=1;labelBackgroundColor=none;startArrow=none;endArrow=ERoneToMany;fontFamily=Verdana;fontSize=12;align=left;shape=flexArrow;startFill=0;" parent="1" edge="1">
          <mxGeometry relative="1" as="geometry">
            <mxPoint x="550" y="350" as="sourcePoint" />
            <mxPoint x="680" y="330" as="targetPoint" />
          </mxGeometry>
        </mxCell>
        <mxCell id="2ed32ef02a7f4228-11" value="Player Owned Restaurant &lt;br&gt;&lt;table style=&quot;width:100%;font-size:1em;&quot; cellpadding=&quot;2&quot; cellspacing=&quot;0&quot;&gt;&lt;tbody&gt;&lt;tr&gt;&lt;td&gt;&lt;br&gt;{Recipe 1: burger&lt;br&gt;&amp;nbsp;&amp;nbsp; {Lettuce(farming) +Meat(hunting)+bread &lt;br&gt;&amp;nbsp;&amp;nbsp;&amp;nbsp; }&lt;br&gt;&amp;nbsp;Burger( ++health, ++stamina, ++weapon sway)&lt;br&gt;&amp;nbsp;}&lt;br&gt;&lt;br&gt;{Recipe 2: fish_sandwich&lt;br&gt;&amp;nbsp;{Lettuce(farming)+Fish(fishing)+bread(wheat:farm) &amp;nbsp; &lt;br&gt;&lt;/td&gt;&lt;td&gt;&lt;br&gt;&lt;/td&gt;&lt;/tr&gt;&lt;tr&gt;&lt;td&gt;&amp;nbsp; }&lt;br&gt;Fish Sandwich(++harvesting, ++mining, ++health)&lt;br&gt;&lt;/td&gt;&lt;td&gt;&lt;br&gt;&lt;/td&gt;&lt;/tr&gt;&lt;tr&gt;&lt;td&gt;&lt;br&gt;&lt;br&gt;&lt;br&gt;&lt;/td&gt;&lt;td&gt;&lt;br&gt;&lt;/td&gt;&lt;/tr&gt;&lt;/tbody&gt;&lt;/table&gt;" style="verticalAlign=top;align=left;overflow=fill;html=1;rounded=0;shadow=0;comic=0;labelBackgroundColor=none;strokeWidth=1;fontFamily=Verdana;fontSize=12" parent="1" vertex="1">
          <mxGeometry x="700" y="210" width="330" height="210" as="geometry" />
        </mxCell>
        <mxCell id="9s1055a0UU2QoHIG4uPa-6" style="edgeStyle=orthogonalEdgeStyle;rounded=0;orthogonalLoop=1;jettySize=auto;html=1;exitX=1;exitY=0.5;exitDx=0;exitDy=0;entryX=-0.017;entryY=0.382;entryDx=0;entryDy=0;entryPerimeter=0;strokeWidth=6;" edge="1" parent="1" source="2ed32ef02a7f4228-1">
          <mxGeometry relative="1" as="geometry">
            <mxPoint x="386.94000000000005" y="359.6600000000001" as="targetPoint" />
          </mxGeometry>
        </mxCell>
        <mxCell id="9s1055a0UU2QoHIG4uPa-11" value="" style="endArrow=block;html=1;rounded=0;exitX=1;exitY=1;exitDx=0;exitDy=0;edgeStyle=orthogonalEdgeStyle;curved=1;startArrow=none;startFill=0;shape=flexArrow;" edge="1" parent="1" target="9s1055a0UU2QoHIG4uPa-12">
          <mxGeometry width="50" height="50" relative="1" as="geometry">
            <mxPoint x="500" y="480.01" as="sourcePoint" />
            <mxPoint x="680" y="480" as="targetPoint" />
            <Array as="points">
              <mxPoint x="500" y="520" />
              <mxPoint x="680" y="520" />
              <mxPoint x="680" y="560" />
            </Array>
          </mxGeometry>
        </mxCell>
        <mxCell id="9s1055a0UU2QoHIG4uPa-12" value="NPC for $$" style="ellipse;whiteSpace=wrap;html=1;" vertex="1" parent="1">
          <mxGeometry x="720" y="470" width="330" height="180" as="geometry" />
        </mxCell>
      </root>
    </mxGraphModel>
  </diagram>
</mxfile>
